<?xml version="1.0" encoding="utf-8"?>
<!-- Generator: Adobe Illustrator 20.0.0, SVG Export Plug-In . SVG Version: 6.00 Build 0)  -->
<!DOCTYPE svg PUBLIC "-//W3C//DTD SVG 1.1//EN" "http://www.w3.org/Graphics/SVG/1.1/DTD/svg11.dtd">
<svg version="1.1" xmlns="http://www.w3.org/2000/svg" xmlns:xlink="http://www.w3.org/1999/xlink" x="0px" y="0px"
	 viewBox="0 0 29.2 29.2" style="enable-background:new 0 0 29.2 29.2;" xml:space="preserve">
<style type="text/css">
	.st0{fill:#F8F6F6;}
	.st1{fill:#4B4B4C;}
	.st2{fill:#EFEFEF;}
	.st3{fill:#E9644B;}
	.st4{fill:#79CCF0;}
	.st5{fill:#1385C8;}
	.st6{fill:#FBC866;}
	.st7{fill:#D97DA6;}
	.st8{fill:#1E96D3;}
	.st9{fill:#8D58A0;}
	.st10{fill:#AECF74;}
	.st11{fill:#24B8EC;}
	.st12{fill:#FDC334;}
	.st13{fill:#D5E080;}
	.st14{fill:#696969;}
	.st15{fill:#4D76B9;}
	.st16{fill:#869663;}
	.st17{fill:#394C8F;}
	.st18{fill:#CDCCCC;}
	.st19{fill:#6A8751;}
	.st20{fill:#5069B0;}
	.st21{fill:#B18BBF;}
	.st22{fill:#E83B3B;}
	.st23{fill:#9FCD92;}
	.st24{fill:#282828;}
	.st25{fill:#57ADDD;}
	.st26{fill:#F2CA59;}
	.st27{fill:#E9476D;}
	.st28{fill:#90D3F1;}
	.st29{fill:#EB5755;}
	.st30{fill:#547BBD;}
	.st31{fill:#5F90B0;}
	.st32{fill:#7F807E;}
	.st33{fill:#3FC0F0;}
	.st34{fill:#8CD0DE;}
	.st35{fill:#FFFFFF;}
	.st36{fill:#F39200;}
	.st37{fill:#5F5A59;}
	.st38{fill-rule:evenodd;clip-rule:evenodd;fill:#FFFFFF;}
	.st39{fill:#E24190;}
	.st40{fill:#396DB4;}
</style>
<g id="Capa_2">
</g>
<g id="Capa_1">
	<path class="st35" d="M14.6,0.9C7,0.9,0.9,7,0.9,14.6c0,7.5,6.1,13.7,13.7,13.7c7.5,0,13.7-6.1,13.7-13.7C28.2,7,22.1,0.9,14.6,0.9
		z M17.9,12l-0.2,2.2h-2.3v7.8h-2.9v-7.8H11V12h1.6v-1.5c0-0.7,0-1.7,0.5-2.3c0.5-0.7,1.2-1.1,2.4-1.1c2,0,2.8,0.3,2.8,0.3l-0.4,2.3
		c0,0-0.6-0.2-1.2-0.2c-0.6,0-1.1,0.2-1.1,0.8V12H17.9z"/>
</g>
</svg>
