<?xml version="1.0" encoding="utf-8"?>
<!-- Generator: Adobe Illustrator 20.0.0, SVG Export Plug-In . SVG Version: 6.00 Build 0)  -->
<!DOCTYPE svg PUBLIC "-//W3C//DTD SVG 1.1//EN" "http://www.w3.org/Graphics/SVG/1.1/DTD/svg11.dtd">
<svg version="1.1" id="Layer_1" xmlns="http://www.w3.org/2000/svg" xmlns:xlink="http://www.w3.org/1999/xlink" x="0px" y="0px"
	 viewBox="0 0 25 25" style="enable-background:new 0 0 25 25;" xml:space="preserve">
<style type="text/css">
	.st0{fill:#B2ACAB;}
	.st1{fill:#605958;}
	.st2{fill:#987E5C;}
	.st3{fill:#BAD636;}
	.st4{opacity:0.75;fill:#B2ACAB;}
	.st5{opacity:0.2;fill:#B2ACAB;}
	.st6{opacity:0.45;fill:#B2ACAB;}
	.st7{fill:#DEDDDD;}
	.st8{fill:#D4D8D3;}
	.st9{fill:#444141;}
	.st10{opacity:0.32;fill:url(#);}
	.st11{fill:none;stroke:#BAD636;stroke-width:0.9715;stroke-linecap:round;stroke-miterlimit:10;}
	.st12{fill:none;stroke:#BAD636;stroke-width:0.9826;stroke-linecap:round;stroke-miterlimit:10;}
	.st13{fill:#FFFFFF;}
	.st14{fill:#F9F9FA;}
</style>
<path class="st2" d="M4.9,18.4c0.1,0.2,0.3,0.3,0.4,0.4c0.8,0.7,1.5,1.4,2.4,2c0.8,0.6,1.6,1.3,2.6,1.5c0.6,0.2,1.2,0.3,1.8,0.4
	c1.2,0.3,2.5,0.3,3.6,0c1.6-0.6,3.1-1.3,4.2-2.5c0.3-0.3,0.6-0.5,0.4-0.9c-0.1-0.3-0.4-0.5-0.8-0.7c-1.1-0.3-2.1-0.7-3.2-1.1
	c-1.5-0.6-3.1-0.8-4.7-1c-1-0.1-2,0-2.9,0c-1.2,0-2.4,0.2-3.5,0.5C4.5,17.3,4.4,17.8,4.9,18.4z"/>
<path class="st2" d="M3.1,4c0.2,1.5,0.7,2.9,1.3,4.2c0.9,2,2.2,3.8,4.1,4.9c0.9,0.5,1.8,0.9,2.8,0.9c0.3,0,0.7,0,0.9-0.4
	c-0.2-0.5,0.1-0.8,0.5-0.9c0-0.1-0.1-0.3-0.1-0.4c-0.2-2-0.8-3.8-2.2-5.4C10,6.2,9.3,5.7,8.7,5.1C7.4,3.9,5.8,3.4,4.1,2.9
	C3.4,2.8,3,3.3,3.1,4z"/>
<path class="st2" d="M14.7,6.2c0,0.2-0.1,0.5,0,0.7c0.2,0.8,0.5,1.5,0.5,2.3c0.4,1.1,0.9,2,1.3,3.1c0.5,1.5,1.5,2.5,2.9,3.1
	c1,0.5,2,0.2,2.3-0.7c0.4-1.2,0.3-2.4,0-3.6c-0.3-0.8-0.8-1.6-1.4-2.3c-1.2-1.6-2.9-2.4-4.6-3.2C15,5.5,14.8,5.6,14.7,6.2z"/>
</svg>
