<?xml version="1.0" encoding="utf-8"?>
<!-- Generator: Adobe Illustrator 20.0.0, SVG Export Plug-In . SVG Version: 6.00 Build 0)  -->
<!DOCTYPE svg PUBLIC "-//W3C//DTD SVG 1.1//EN" "http://www.w3.org/Graphics/SVG/1.1/DTD/svg11.dtd">
<svg version="1.1" xmlns="http://www.w3.org/2000/svg" xmlns:xlink="http://www.w3.org/1999/xlink" x="0px" y="0px"
	 viewBox="0 0 30 30" style="enable-background:new 0 0 30 30;" xml:space="preserve">
<style type="text/css">
	.st0{fill:#F8F6F6;}
	.st1{fill:#4B4B4C;}
	.st2{fill:#EFEFEF;}
	.st3{fill:#E9644B;}
	.st4{fill:#79CCF0;}
	.st5{fill:#1385C8;}
	.st6{fill:#FBC866;}
	.st7{fill:#D97DA6;}
	.st8{fill:#1E96D3;}
	.st9{fill:#8D58A0;}
	.st10{fill:#AECF74;}
	.st11{fill:#24B8EC;}
	.st12{fill:#FDC334;}
	.st13{fill:#D5E080;}
	.st14{fill:#696969;}
	.st15{fill:#4D76B9;}
	.st16{fill:#869663;}
	.st17{fill:#394C8F;}
	.st18{fill:#CDCCCC;}
	.st19{fill:#6A8751;}
	.st20{fill:#5069B0;}
	.st21{fill:#B18BBF;}
	.st22{fill:#E83B3B;}
	.st23{fill:#9FCD92;}
	.st24{fill:#282828;}
	.st25{fill:#57ADDD;}
	.st26{fill:#F2CA59;}
	.st27{fill:#E9476D;}
	.st28{fill:#90D3F1;}
	.st29{fill:#EB5755;}
	.st30{fill:#547BBD;}
	.st31{fill:#5F90B0;}
	.st32{fill:#7F807E;}
	.st33{fill:#3FC0F0;}
	.st34{fill:#8CD0DE;}
	.st35{fill:#FFFFFF;}
	.st36{fill:#F39200;}
	.st37{fill:#5F5A59;}
	.st38{fill-rule:evenodd;clip-rule:evenodd;fill:#FFFFFF;}
	.st39{fill:#E24190;}
	.st40{fill:#396DB4;}
</style>
<g id="Capa_2">
</g>
<g id="Capa_1">
	<path class="st35" d="M14.8,1.3C7.3,1.3,1.2,7.5,1.2,15c0,7.5,6.1,13.7,13.7,13.7c7.5,0,13.7-6.1,13.7-13.7
		C28.5,7.5,22.4,1.3,14.8,1.3z M21,12.7c0,0.1,0,0.3,0,0.4c0,4.1-3.1,8.8-8.8,8.8c-1.7,0-3.4-0.5-4.7-1.4c0.2,0,0.5,0,0.7,0
		c1.4,0,2.8-0.5,3.8-1.3c-1.3,0-2.5-0.9-2.9-2.1c0.2,0,0.4,0.1,0.6,0.1c0.3,0,0.6,0,0.8-0.1c-1.4-0.3-2.5-1.5-2.5-3v0
		c0.4,0.2,0.9,0.4,1.4,0.4c-0.8-0.6-1.4-1.5-1.4-2.6c0-0.6,0.2-1.1,0.4-1.6c1.5,1.9,3.8,3.1,6.4,3.2c-0.1-0.2-0.1-0.5-0.1-0.7
		c0-1.7,1.4-3.1,3.1-3.1c0.9,0,1.7,0.4,2.2,1c0.7-0.1,1.4-0.4,2-0.7c-0.2,0.7-0.7,1.3-1.4,1.7c0.6-0.1,1.2-0.2,1.8-0.5
		C22.1,11.7,21.6,12.2,21,12.7z"/>
</g>
</svg>
