<?xml version="1.0" encoding="utf-8"?>
<!-- Generator: Adobe Illustrator 19.2.1, SVG Export Plug-In . SVG Version: 6.00 Build 0)  -->
<!DOCTYPE svg PUBLIC "-//W3C//DTD SVG 1.1//EN" "http://www.w3.org/Graphics/SVG/1.1/DTD/svg11.dtd">
<svg version="1.1" xmlns="http://www.w3.org/2000/svg" xmlns:xlink="http://www.w3.org/1999/xlink" x="0px" y="0px"
	 viewBox="0 0 30 30" style="enable-background:new 0 0 30 30;" xml:space="preserve">
<style type="text/css">
	.st0{fill:#F8F6F6;}
	.st1{fill:#4B4B4C;}
	.st2{fill:#EFEFEF;}
	.st3{fill:#E9644B;}
	.st4{fill:#79CCF0;}
	.st5{fill:#1385C8;}
	.st6{fill:#FBC866;}
	.st7{fill:#D97DA6;}
	.st8{fill:#1E96D3;}
	.st9{fill:#8D58A0;}
	.st10{fill:#AECF74;}
	.st11{fill:#24B8EC;}
	.st12{fill:#FDC334;}
	.st13{fill:#D5E080;}
	.st14{fill:#696969;}
	.st15{fill:#4D76B9;}
	.st16{fill:#869663;}
	.st17{fill:#394C8F;}
	.st18{fill:#CDCCCC;}
	.st19{fill:#6A8751;}
	.st20{fill:#5069B0;}
	.st21{fill:#B18BBF;}
	.st22{fill:#E83B3B;}
	.st23{fill:#9FCD92;}
	.st24{fill:#282828;}
	.st25{fill:#57ADDD;}
	.st26{fill:#F2CA59;}
	.st27{fill:#E9476D;}
	.st28{fill:#90D3F1;}
	.st29{fill:#EB5755;}
	.st30{fill:#547BBD;}
	.st31{fill:#5F90B0;}
	.st32{fill:#7F807E;}
	.st33{fill:#3FC0F0;}
	.st34{fill:#8CD0DE;}
	.st35{fill:#FFFFFF;}
	.st36{fill:#F39200;}
	.st37{fill:#5F5A59;}
	.st38{fill-rule:evenodd;clip-rule:evenodd;fill:#FFFFFF;}
	.st39{fill:#E24190;}
	.st40{fill:#396DB4;}
</style>
<g id="Capa_2">
</g>
<g id="Capa_1">
	<path class="st37" d="M22.5,11.1c-0.6,0.2-1.1,0.4-1.8,0.5c0.6-0.4,1.1-1,1.4-1.7c-0.6,0.4-1.3,0.6-2,0.7c-0.6-0.6-1.4-1-2.2-1
		c-1.7,0-3.1,1.4-3.1,3.1c0,0.2,0,0.5,0.1,0.7c-2.6-0.1-4.8-1.4-6.4-3.2c-0.3,0.5-0.4,1-0.4,1.6c0,1.1,0.5,2,1.4,2.6
		c-0.5,0-1-0.2-1.4-0.4v0c0,1.5,1.1,2.7,2.5,3c-0.3,0.1-0.5,0.1-0.8,0.1c-0.2,0-0.4,0-0.6-0.1c0.4,1.2,1.5,2.1,2.9,2.1
		C11,20,9.7,20.5,8.2,20.5c-0.2,0-0.5,0-0.7,0c1.4,0.9,3,1.4,4.7,1.4c5.7,0,8.8-4.7,8.8-8.8c0-0.1,0-0.3,0-0.4
		C21.6,12.2,22.1,11.7,22.5,11.1"/>
	<g>
		<path class="st37" d="M14.8,29.6C6.8,29.6,0.2,23,0.2,15S6.8,0.4,14.8,0.4S29.4,7,29.4,15S22.9,29.6,14.8,29.6z M14.8,2.2
			C7.8,2.2,2.1,8,2.1,15s5.7,12.8,12.8,12.8S27.6,22,27.6,15S21.9,2.2,14.8,2.2z"/>
	</g>
</g>
</svg>
